<?xml version="1.0" encoding="UTF-8" standalone="no"?>
<svg width="16px" height="16px" viewBox="0 0 16 16" version="1.1" xmlns="http://www.w3.org/2000/svg" xmlns:xlink="http://www.w3.org/1999/xlink">
    <title>AI Icon Small</title>
    <g stroke="none" stroke-width="1" fill="none" fill-rule="evenodd">
        <rect fill="#4A86E8" x="0" y="0" width="16" height="16" rx="2"></rect>
        <g transform="translate(2.000000, 3.000000)" fill="#FFFFFF" fill-rule="nonzero">
            <!-- A -->
            <path d="M1,10 L3,10 L3.5,8.5 L6.5,8.5 L7,10 L9,10 L6,2 L4,2 L1,10 Z M4,7 L5,5 L6,7 L4,7 Z"></path>
            <!-- I -->
            <rect x="10" y="2" width="1.5" height="8"></rect>
            <!-- Brain circuit -->
            <path d="M1,1 C2,0.5 4,0.5 5,1" stroke="#FFFFFF" stroke-width="0.5" fill="none"></path>
            <path d="M9,1 C8,0.5 6,0.5 5,1" stroke="#FFFFFF" stroke-width="0.5" fill="none"></path>
            <circle cx="1" cy="1" r="0.6" fill="#FFFFFF"></circle>
            <circle cx="9" cy="1" r="0.6" fill="#FFFFFF"></circle>
        </g>
    </g>
</svg> 