<?xml version="1.0" encoding="UTF-8" standalone="no"?>
<svg width="40px" height="40px" viewBox="0 0 40 40" version="1.1" xmlns="http://www.w3.org/2000/svg" xmlns:xlink="http://www.w3.org/1999/xlink">
    <title>AI Icon</title>
    <g stroke="none" stroke-width="1" fill="none" fill-rule="evenodd">
        <rect fill="#4A86E8" x="0" y="0" width="40" height="40" rx="4"></rect>
        <g transform="translate(8.000000, 8.000000)" fill="#FFFFFF" fill-rule="nonzero">
            <!-- A -->
            <path d="M5,24 L9,24 L10.5,20 L17.5,20 L19,24 L23,24 L16,5 L12,5 L5,24 Z M11.5,17 L14,10 L16.5,17 L11.5,17 Z"></path>
            <!-- I -->
            <rect x="24" y="5" width="4" height="19"></rect>
            <!-- Brain circuit lines -->
            <path d="M2,2 C6,0 10,0 14,2" stroke="#FFFFFF" stroke-width="1" fill="none"></path>
            <path d="M22,2 C18,0 14,0 10,2" stroke="#FFFFFF" stroke-width="1" fill="none"></path>
            <circle cx="2" cy="2" r="1.5" fill="#FFFFFF"></circle>
            <circle cx="22" cy="2" r="1.5" fill="#FFFFFF"></circle>
        </g>
    </g>
</svg> 